<svg id="Layer_1" data-name="Layer 1" xmlns="http://www.w3.org/2000/svg" viewBox="0 0 60 60"><defs><style>.cls-1{fill:#57215b;fill-rule:evenodd;}</style></defs><title>linkedin</title><path class="cls-1" d="M50.8,48.1V36.4c0-6.3-3.3-9.2-7.8-9.2a6.7,6.7,0,0,0-6.1,3.4V27.7H30.1c.1,1.9,0,20.4,0,20.4h6.8V36.7a4.7,4.7,0,0,1,.2-1.7,3.8,3.8,0,0,1,3.5-2.5c2.5,0,3.4,1.9,3.4,4.6V48ZM23,24.9a3.5,3.5,0,1,0,0-7,3.5,3.5,0,0,0-3.8,3.5c0,2,1.4,3.5,3.8,3.5ZM34,64A30,30,0,1,1,64,34,30,30,0,0,1,34,64ZM26.4,48.1V27.7H19.6V48.1Z" transform="translate(-4 -4)"/></svg>