<svg id="Layer_1" data-name="Layer 1" xmlns="http://www.w3.org/2000/svg" xmlns:xlink="http://www.w3.org/1999/xlink" viewBox="0 0 191.37 40.79"><defs><style>.cls-1{fill:none;}.cls-2{fill:#57215b;}.cls-3{clip-path:url(#clip-path);}.cls-4{fill:#1d1d1b;}</style><clipPath id="clip-path" transform="translate(0 0)"><rect class="cls-1" width="191.37" height="40.79"/></clipPath></defs><title>logo</title><polygon class="cls-2" points="0 0.01 0 26.02 6.27 26.02 6.27 16.53 17.91 16.53 17.91 11.38 6.27 11.38 6.27 4.93 27.71 4.93 27.71 0.01 0 0.01"/><g class="cls-3"><path class="cls-2" d="M83.07,0H76.74V21.28H59.12V0H52.79V21.29s-.13,3.2,2,4a12.1,12.1,0,0,0,4.36.72H76.74a12.13,12.13,0,0,0,4.36-.72c2.1-.81,2-4,2-4h0Z" transform="translate(0 0)"/><path class="cls-2" d="M191.37,0h-6.32V21.28H167.42V0H161.1V21.29s-.14,3.2,2,4a12.06,12.06,0,0,0,4.35.72H185a12.1,12.1,0,0,0,4.36-.72c2.1-.81,2-4,2-4h0Z" transform="translate(0 0)"/><rect class="cls-2" x="118.86" y="4.85" width="6.27" height="21.09"/><polygon class="cls-2" points="137.76 0 106.36 0 106.36 4.93 118.92 4.93 125.19 4.93 137.76 4.93 137.76 0"/><path class="cls-4" d="M6.79,40.79H3.12a4.45,4.45,0,0,1-1.8-.29,1.82,1.82,0,0,1-1-.94A4.22,4.22,0,0,1,0,37.8V35.36a4.39,4.39,0,0,1,.32-1.78,1.93,1.93,0,0,1,1-1,4.5,4.5,0,0,1,1.8-.3H6.79c2,0,3,.79,3,2.39H9a1.62,1.62,0,0,0-.2-.83,1.25,1.25,0,0,0-.68-.53,3.49,3.49,0,0,0-1.28-.19H3.13a3.69,3.69,0,0,0-1.35.2A1.23,1.23,0,0,0,1.1,34a3.47,3.47,0,0,0-.2,1.34V37.8A3.93,3.93,0,0,0,1,38.85a1.4,1.4,0,0,0,.38.64,1.52,1.52,0,0,0,.68.35A4.42,4.42,0,0,0,3.13,40H6.8a2.92,2.92,0,0,0,1.67-.37A1.39,1.39,0,0,0,9,38.4h.87a2.64,2.64,0,0,1-.3,1.33,1.93,1.93,0,0,1-1,.8,5.07,5.07,0,0,1-1.76.26" transform="translate(0 0)"/><path class="cls-4" d="M36.56,37.9a5.79,5.79,0,0,1-.16,1.46,1.78,1.78,0,0,1-.51.86,1.89,1.89,0,0,1-.91.43,7,7,0,0,1-1.43.12H29.88a6,6,0,0,1-1.45-.15,2.2,2.2,0,0,1-.95-.49,2,2,0,0,1-.54-.87,5.15,5.15,0,0,1-.18-1.36V35.29a5.92,5.92,0,0,1,.17-1.39,2,2,0,0,1,.52-.91,2.19,2.19,0,0,1,.95-.53,5.57,5.57,0,0,1,1.48-.16h3.67a5,5,0,0,1,1.71.24,1.81,1.81,0,0,1,1,.9,4.34,4.34,0,0,1,.33,1.85Zm-.87-2.68a3.47,3.47,0,0,0-.2-1.29,1.1,1.1,0,0,0-.64-.61,3.72,3.72,0,0,0-1.32-.18H29.87a3.42,3.42,0,0,0-1.28.19,1.29,1.29,0,0,0-.71.63,3.18,3.18,0,0,0-.25,1.26V37.9a3.77,3.77,0,0,0,.13,1,1.23,1.23,0,0,0,.39.62,1.5,1.5,0,0,0,.67.32,5.13,5.13,0,0,0,1.05.09h3.66a4.21,4.21,0,0,0,1.36-.16,1.06,1.06,0,0,0,.62-.59,3.85,3.85,0,0,0,.18-1.27Z" transform="translate(0 0)"/><polygon class="cls-4" points="53.45 40.77 53.45 32.39 55.38 32.39 61.83 39.9 61.83 32.39 62.7 32.39 62.7 40.77 61.44 40.77 54.8 33.05 54.32 33.05 54.32 40.77 53.45 40.77"/><path class="cls-4" d="M86.24,40.79H82.57a4.51,4.51,0,0,1-1.8-.29,1.86,1.86,0,0,1-1-.94,4.39,4.39,0,0,1-.32-1.76V35.36a4.57,4.57,0,0,1,.32-1.78,2,2,0,0,1,1-1,4.48,4.48,0,0,1,1.79-.3h3.67c2,0,3,.79,3,2.39h-.87a1.62,1.62,0,0,0-.19-.83,1.28,1.28,0,0,0-.69-.53,3.45,3.45,0,0,0-1.28-.19H82.59a3.69,3.69,0,0,0-1.35.2,1.2,1.2,0,0,0-.68.68,3.44,3.44,0,0,0-.21,1.34V37.8a3.89,3.89,0,0,0,.12,1.05,1.39,1.39,0,0,0,.37.64,1.57,1.57,0,0,0,.68.35,4.51,4.51,0,0,0,1.07.11h3.66a2.9,2.9,0,0,0,1.67-.37,1.37,1.37,0,0,0,.49-1.18h.87a2.64,2.64,0,0,1-.3,1.33,1.89,1.89,0,0,1-1,.8,5,5,0,0,1-1.76.26" transform="translate(0 0)"/><polygon class="cls-4" points="106.32 40.77 106.32 32.39 113.74 32.39 113.74 33.24 107.19 33.24 107.19 36.01 113.57 36.01 113.57 36.86 107.19 36.86 107.19 39.92 113.74 39.92 113.74 40.77 106.32 40.77"/><path class="cls-4" d="M130.85,40.76V32.39h5.65a4.71,4.71,0,0,1,1.7.26,1.73,1.73,0,0,1,.94.82,3.11,3.11,0,0,1,.31,1.51,2.91,2.91,0,0,1-.29,1.43,1.57,1.57,0,0,1-.92.7,6,6,0,0,1-1.72.2h-4.8v3.45Zm.87-4.3h5.05a4.29,4.29,0,0,0,1.09-.11.9.9,0,0,0,.55-.43,2.07,2.07,0,0,0,.17-.94,1.46,1.46,0,0,0-1.73-1.74h-5.13Z" transform="translate(0 0)"/><polygon class="cls-4" points="155.8 32.39 164.83 32.39 164.83 33.24 160.74 33.24 160.74 40.77 159.87 40.77 159.87 33.24 155.8 33.24 155.8 32.39"/><path class="cls-4" d="M181.35,34.76a2.8,2.8,0,0,1,.29-1.36,1.69,1.69,0,0,1,.89-.77,4.2,4.2,0,0,1,1.55-.24h4.22a3.32,3.32,0,0,1,2.13.59,2.18,2.18,0,0,1,.72,1.78h-.87a1.72,1.72,0,0,0-.21-.83,1.26,1.26,0,0,0-.68-.51,3.68,3.68,0,0,0-1.27-.18h-4a3.22,3.22,0,0,0-1.16.16,1,1,0,0,0-.56.49,2.12,2.12,0,0,0-.15.87,1.44,1.44,0,0,0,.17.75,1,1,0,0,0,.63.4,5.65,5.65,0,0,0,1.35.13h3.74a5.86,5.86,0,0,1,1.78.22,1.85,1.85,0,0,1,1,.72,2.17,2.17,0,0,1,.33,1.25v.17a3.25,3.25,0,0,1-.32,1.4,1.59,1.59,0,0,1-.87.74,4.49,4.49,0,0,1-1.57.23h-4.32a3.57,3.57,0,0,1-1.45-.27,2,2,0,0,1-.94-.8,2.49,2.49,0,0,1-.33-1.32h.87a1.72,1.72,0,0,0,.21.83,1.27,1.27,0,0,0,.67.53,3.66,3.66,0,0,0,1.26.18h4a2.41,2.41,0,0,0,1.48-.37,1.37,1.37,0,0,0,.48-1.17,1.76,1.76,0,0,0-.18-.87,1,1,0,0,0-.62-.48,3.87,3.87,0,0,0-1.22-.15h-4.21a6,6,0,0,1-1.38-.13,2.1,2.1,0,0,1-.85-.4,1.52,1.52,0,0,1-.43-.65,3.21,3.21,0,0,1-.12-.94" transform="translate(0 0)"/></g></svg>