<svg id="Layer_1" data-name="Layer 1" xmlns="http://www.w3.org/2000/svg" xmlns:xlink="http://www.w3.org/1999/xlink" viewBox="0 0 500 165"><defs><style>.cls-1{fill:none;}.cls-2{clip-path:url(#clip-path);}.cls-3{fill:#281e46;}.cls-4{fill:#e0e0e0;}.cls-5{clip-path:url(#clip-path-2);}.cls-6{fill:url(#linear-gradient);}.cls-7,.cls-8,.cls-9{fill:#fff;}.cls-7{fill-rule:evenodd;}.cls-9{font-size:52.36px;font-family:Raleway-Thin, Raleway;font-weight:200;}.cls-10{letter-spacing:0em;}.cls-11{letter-spacing:-0.01em;}</style><clipPath id="clip-path"><rect class="cls-1" width="500" height="165"/></clipPath><clipPath id="clip-path-2"><path class="cls-1" d="M100.1,120.3h0m0,0h0m-38-37.9a38,38,0,0,0,5.1,18.9L61.8,121l20.1-5.3a38.3,38.3,0,0,0,18.1,4.6h.1A37.9,37.9,0,0,0,138,82.4a38.1,38.1,0,0,0-37.9-38,38.1,38.1,0,0,0-38,38"/></clipPath><linearGradient id="linear-gradient" y1="165" x2="1" y2="165" gradientTransform="translate(-12527.7 121) rotate(-90) scale(76.53)" gradientUnits="userSpaceOnUse"><stop offset="0" stop-color="#20b038"/><stop offset="1" stop-color="#60d66a"/></linearGradient></defs><title>Whatsup</title><g class="cls-2"><path class="cls-3" d="M417.5,165H82.5a82.5,82.5,0,0,1,0-165h335a82.5,82.5,0,0,1,0,165"/><path class="cls-4" d="M128.2,54.7a39.8,39.8,0,0,0-62.6,48L60,123.3l21.1-5.6a39.2,39.2,0,0,0,19,4.9h0a39.8,39.8,0,0,0,28.1-67.9m-28.1,61.2h0a33.2,33.2,0,0,1-16.9-4.6l-1.2-.8-12.5,3.3,3.4-12.2-.8-1.2a33,33,0,0,1,28-50.6,33.1,33.1,0,0,1,33,33,33.1,33.1,0,0,1-33,33.1"/></g><g class="cls-5"><rect class="cls-6" x="61.8" y="44.4" width="76.2" height="76.53"/></g><g class="cls-2"><path class="cls-7" d="M90.2,65.9A2.3,2.3,0,0,0,88,64.2H86.2a4,4,0,0,0-2.7,1.2,11.2,11.2,0,0,0-3.4,8.2c0,4.9,3.5,9.5,4,10.2s6.8,10.9,16.8,14.8c8.3,3.3,10,2.6,11.8,2.5s5.8-2.4,6.6-4.7a9.1,9.1,0,0,0,.6-4.7c-.3-.4-.9-.6-1.9-1.1s-5.8-2.9-6.7-3.2-1.6-.5-2.2.5-2.6,3.2-3.1,3.8-1.2.8-2.2.3a29,29,0,0,1-7.9-4.9,27,27,0,0,1-5.4-6.8c-.6-1-.1-1.5.4-2l1.5-1.7a9.5,9.5,0,0,0,1-1.7,2,2,0,0,0-.1-1.7c-.3-.5-2.2-5.3-3.1-7.3"/><path class="cls-8" d="M127.9,54.6A39.3,39.3,0,0,0,60.8,82.3,39.7,39.7,0,0,0,66,102l-5.6,20.3,20.9-5.4a39.5,39.5,0,0,0,18.8,4.8h0a39.3,39.3,0,0,0,27.8-67.1M100.1,115h0a32.4,32.4,0,0,1-16.7-4.5l-1.2-.7L69.9,113l3.3-12-.8-1.3a32.3,32.3,0,0,1-5-17.4A32.7,32.7,0,1,1,100.1,115"/></g><text class="cls-9" transform="translate(173.9 103.8)">Wh<tspan class="cls-10" x="83.9" y="0">a</tspan><tspan x="111.2" y="0">t</tspan><tspan class="cls-11" x="126.7" y="0">s</tspan><tspan x="151" y="0">App</tspan></text></svg>