<svg id="Layer_1" data-name="Layer 1" xmlns="http://www.w3.org/2000/svg" xmlns:xlink="http://www.w3.org/1999/xlink" viewBox="0 0 191.4 168.9"><defs><style>.cls-1{fill:none;}.cls-2{clip-path:url(#clip-path);}.cls-3{fill:#57215b;}.cls-4{fill:#fcd800;}.cls-5{fill:#1d1d1b;}</style><clipPath id="clip-path" transform="translate(0 0)"><rect class="cls-1" width="191.4" height="168.89"/></clipPath></defs><title>logo_contacts</title><g class="cls-2"><path class="cls-3" d="M0,118.7H191.4V0H0Zm137.3-10.5a22.6,22.6,0,1,1,22.6-22.6,22.7,22.7,0,0,1-22.6,22.6" transform="translate(0 0)"/><path class="cls-4" d="M137.3,63a22.6,22.6,0,1,0,22.6,22.6A22.7,22.7,0,0,0,137.3,63" transform="translate(0 0)"/><polygon class="cls-3" points="0 154.1 0 128.1 27.7 128.1 27.7 133 6.3 133 6.3 139.5 17.9 139.5 17.9 144.6 6.3 144.6 6.3 154.1 0 154.1"/><path class="cls-3" d="M83.1,128.1H76.7v21.3H59.1V128.1H52.8v21.3s-.1,3.2,2,4a12.1,12.1,0,0,0,4.3.7H76.7a12.5,12.5,0,0,0,4.4-.7c2.1-.8,2-4,2-4h0Z" transform="translate(0 0)"/><path class="cls-3" d="M191.4,128.1H185v21.3H167.4V128.1h-6.3v21.3s-.1,3.2,2,4a12.1,12.1,0,0,0,4.3.7H185a12.5,12.5,0,0,0,4.4-.7c2.1-.8,2-4,2-4h0Z" transform="translate(0 0)"/><rect class="cls-3" x="118.9" y="133" width="6.3" height="21.09"/><polygon class="cls-3" points="137.8 128.1 106.4 128.1 106.4 133 118.9 133 125.2 133 137.8 133 137.8 128.1"/><path class="cls-5" d="M6.8,168.9H3.1a4.8,4.8,0,0,1-1.8-.3,2.2,2.2,0,0,1-1-.9,4.8,4.8,0,0,1-.3-1.8v-2.4a4.2,4.2,0,0,1,.3-1.8,1.9,1.9,0,0,1,1-1,4.8,4.8,0,0,1,1.8-.3H6.8q3,0,3,2.4H9a1.9,1.9,0,0,0-.2-.8,1.3,1.3,0,0,0-.7-.6l-1.3-.2H3.1l-1.3.2a1.6,1.6,0,0,0-.7.7,4.6,4.6,0,0,0-.2,1.4v2.4a2.8,2.8,0,0,0,.1,1,1.6,1.6,0,0,0,.4.7.9.9,0,0,0,.7.3H6.8a3.7,3.7,0,0,0,1.7-.3,1.7,1.7,0,0,0,.5-1.2h.8a2.5,2.5,0,0,1-.3,1.3,1.6,1.6,0,0,1-1,.8,4,4,0,0,1-1.7.3" transform="translate(0 0)"/><path class="cls-5" d="M36.6,166a6.1,6.1,0,0,1-.2,1.5,2.2,2.2,0,0,1-.5.8,1.3,1.3,0,0,1-.9.4l-1.5.2H29.9l-1.5-.2a1.3,1.3,0,0,1-.9-.5,2.4,2.4,0,0,1-.6-.8,6.1,6.1,0,0,1-.1-1.4v-2.6a5.7,5.7,0,0,1,.1-1.4,1.5,1.5,0,0,1,.6-.9,1.3,1.3,0,0,1,.9-.5l1.5-.2h3.6l1.8.2a2,2,0,0,1,.9.9,4.9,4.9,0,0,1,.4,1.9Zm-.9-2.7a4.4,4.4,0,0,0-.2-1.3,1.1,1.1,0,0,0-.7-.6l-1.3-.2H29.9l-1.3.2a1.2,1.2,0,0,0-.7.7,2.1,2.1,0,0,0-.3,1.2V166a3,3,0,0,0,.2,1,.9.9,0,0,0,.3.6.9.9,0,0,0,.7.3h6.1l.6-.6a3.9,3.9,0,0,0,.2-1.3Z" transform="translate(0 0)"/><polygon class="cls-5" points="53.4 168.9 53.4 160.5 55.4 160.5 61.8 168 61.8 160.5 62.7 160.5 62.7 168.9 61.4 168.9 54.8 161.1 54.3 161.1 54.3 168.9 53.4 168.9"/><path class="cls-5" d="M86.2,168.9H82.6a4.2,4.2,0,0,1-1.8-.3,1.8,1.8,0,0,1-1-.9,4.8,4.8,0,0,1-.3-1.8v-2.4a4.2,4.2,0,0,1,.3-1.8,1.7,1.7,0,0,1,1-1,4.2,4.2,0,0,1,1.8-.3h3.6c2.1,0,3.1.8,3.1,2.4h-.9a1.9,1.9,0,0,0-.2-.8.9.9,0,0,0-.7-.6l-1.2-.2H82.6l-1.4.2a1.3,1.3,0,0,0-.6.7,2.8,2.8,0,0,0-.2,1.4v2.4a2.8,2.8,0,0,0,.1,1,1.5,1.5,0,0,0,.3.7.9.9,0,0,0,.7.3h4.8a3.2,3.2,0,0,0,1.6-.3,1.3,1.3,0,0,0,.5-1.2h.9a2.5,2.5,0,0,1-.3,1.3,1.6,1.6,0,0,1-1,.8,4.2,4.2,0,0,1-1.8.3" transform="translate(0 0)"/><polygon class="cls-5" points="106.3 168.9 106.3 160.5 113.7 160.5 113.7 161.3 107.2 161.3 107.2 164.1 113.6 164.1 113.6 165 107.2 165 107.2 168 113.7 168 113.7 168.9 106.3 168.9"/><path class="cls-5" d="M130.9,168.9v-8.4h5.6l1.7.2a2,2,0,0,1,.9.9,3.1,3.1,0,0,1,.3,1.5,4.6,4.6,0,0,1-.2,1.4,1.5,1.5,0,0,1-1,.7l-1.7.2h-4.8v3.5Zm.8-4.3h5.1l1.1-.2a.7.7,0,0,0,.5-.4,2,2,0,0,0,.2-.9,2.3,2.3,0,0,0-.4-1.4,2.2,2.2,0,0,0-1.3-.4h-5.2Z" transform="translate(0 0)"/><polygon class="cls-5" points="155.8 160.5 164.8 160.5 164.8 161.3 160.7 161.3 160.7 168.9 159.9 168.9 159.9 161.3 155.8 161.3 155.8 160.5"/><path class="cls-5" d="M181.4,162.9a2.8,2.8,0,0,1,.2-1.4,1.8,1.8,0,0,1,.9-.8l1.6-.2h4.2a3.3,3.3,0,0,1,2.1.6,2.2,2.2,0,0,1,.8,1.8h-.9a2.4,2.4,0,0,0-.2-.9,1.8,1.8,0,0,0-.7-.5l-1.3-.2h-4l-1.2.2a1.2,1.2,0,0,0-.5.5,2,2,0,0,0-.2.9,1.4,1.4,0,0,0,.2.7.9.9,0,0,0,.6.4h5.1a4.8,4.8,0,0,1,1.8.3,1.8,1.8,0,0,1,1,.7,2.1,2.1,0,0,1,.3,1.2v.2a2.6,2.6,0,0,1-.3,1.4,1.6,1.6,0,0,1-.9.7,3.3,3.3,0,0,1-1.5.3h-4.3a3.3,3.3,0,0,1-1.5-.3,1.8,1.8,0,0,1-.9-.8,2,2,0,0,1-.4-1.3h.9a1.9,1.9,0,0,0,.2.8,1.3,1.3,0,0,0,.7.5,2.2,2.2,0,0,0,1.2.2h4a2.8,2.8,0,0,0,1.5-.3,1.7,1.7,0,0,0,.5-1.2,2,2,0,0,0-.2-.9,1,1,0,0,0-.6-.5h-5.5l-1.3-.2a1.3,1.3,0,0,1-.9-.4.9.9,0,0,1-.4-.6,2.8,2.8,0,0,1-.1-.9" transform="translate(0 0)"/></g></svg>