<svg id="Layer_1" data-name="Layer 1" xmlns="http://www.w3.org/2000/svg" viewBox="0 0 49.2 49.2">
    <defs>
        <style>.cls-1{fill:#2a0636;}</style>
    </defs>
    <title>behance</title>
    <path class="cls-1" d="M38,27.3a3.6,3.6,0,0,0-3.6,3.2h6.7A2.9,2.9,0,0,0,38,27.3Z" transform="translate(-3.7 -5.1)"/>
    <path class="cls-1" d="M22.7,30.4h-6v5.5h5.7c.9,0,2.5-.3,2.5-2.7S22.7,30.4,22.7,30.4Z"
          transform="translate(-3.7 -5.1)"/>
    <path class="cls-1"
          d="M28.3,5.1A24.6,24.6,0,1,0,52.9,29.7,24.6,24.6,0,0,0,28.3,5.1Zm5.2,15.1H42v2.5H33.5ZM29.2,33.5c0,6.3-6.5,6.1-6.5,6.1H12V19H22.7c3.2,0,5.8,1.8,5.8,5.5s-3.1,3.9-3.1,3.9C29.5,28.4,29.2,33.5,29.2,33.5Zm15.9-.3H34.5a3.4,3.4,0,0,0,3.6,3.6c3.4,0,3.3-2.2,3.3-2.2H45c0,5.9-7,5.5-7,5.5-8.4,0-7.9-7.9-7.9-7.9s0-7.9,7.9-7.9S45.1,33.2,45.1,33.2Z"
          transform="translate(-3.7 -5.1)"/>
    <path class="cls-1" d="M24.2,24.8c0-2.1-1.5-2.1-1.5-2.1H16.8v4.6h5.6C23.3,27.3,24.2,26.9,24.2,24.8Z"
          transform="translate(-3.7 -5.1)"/>
</svg>