<svg id="Layer_1" data-name="Layer 1" xmlns="http://www.w3.org/2000/svg" viewBox="0 0 60 60"><defs><style>.cls-1{fill:#2a0f35;}.cls-2{fill:#fff;}</style></defs><title>menu-twitter</title><circle class="cls-1" cx="30" cy="30" r="30"/><path class="cls-2" d="M49.24,18.07a16.06,16.06,0,0,1-4.54,1.24,7.91,7.91,0,0,0,3.47-4.37,15.82,15.82,0,0,1-5,1.92,7.9,7.9,0,0,0-13.65,5.4,8.21,8.21,0,0,0,.2,1.8,22.37,22.37,0,0,1-16.26-8.25,7.9,7.9,0,0,0,2.44,10.54,7.88,7.88,0,0,1-3.58-1v.1a7.9,7.9,0,0,0,6.33,7.74,7.88,7.88,0,0,1-3.56.14,7.91,7.91,0,0,0,7.37,5.48,15.83,15.83,0,0,1-9.8,3.38,16.83,16.83,0,0,1-1.89-.11,22.37,22.37,0,0,0,12.1,3.54c14.52,0,22.46-12,22.46-22.45q0-.51,0-1a16.33,16.33,0,0,0,4-4.09Z"/></svg>