<svg id="Layer_1" data-name="Layer 1" xmlns="http://www.w3.org/2000/svg" viewBox="0 0 49.2 49.2">
    <defs>
        <style>.cls-1{fill:#2a0636;}</style>
    </defs>
    <title>instagram</title>
    <circle class="cls-1" cx="24.4" cy="24.8" r="4.4"/>
    <path class="cls-1"
          d="M33.6,19.2h-11a5.5,5.5,0,0,0-3.9,1.4,5.5,5.5,0,0,0-1.4,3.9v11a5.5,5.5,0,0,0,1.5,4,5.6,5.6,0,0,0,3.9,1.4H33.6a5.5,5.5,0,0,0,3.9-1.4A5.1,5.1,0,0,0,39,35.6v-11a5.6,5.6,0,0,0-1.4-3.9A5.4,5.4,0,0,0,33.6,19.2ZM28.1,36.8a6.8,6.8,0,0,1,0-13.6,6.8,6.8,0,1,1,0,13.6Zm7.1-12.3a1.6,1.6,0,1,1,1.6-1.6A1.6,1.6,0,0,1,35.2,24.5Z"
          transform="translate(-3.7 -5.2)"/>
    <path class="cls-1"
          d="M28.3,5.2A24.6,24.6,0,1,0,52.9,29.8,24.6,24.6,0,0,0,28.3,5.2ZM41.4,35.6a7.9,7.9,0,0,1-2.2,5.7,7.8,7.8,0,0,1-5.6,2.1H22.7a7.8,7.8,0,0,1-5.6-2.1,7.5,7.5,0,0,1-2.2-5.7v-11a7.4,7.4,0,0,1,7.8-7.8h11a7.4,7.4,0,0,1,7.7,7.8Z"
          transform="translate(-3.7 -5.2)"/>
</svg>